PathFileType	4	(X/Y/Z)	2.trc
DataRate	CameraRate	NumFrames	NumMarkers	Units	OrigDataRate	OrigDataStartFrame	OrigNumFrames
147	147	4	50	mm	147	1310	1496
Frame#	Time	L_IAS			R_IAS			L_TH1			L_TH2			L_TH3			L_TH4			L_FLE			L_FME			L_SK1			L_SK2			L_SK3			L_SK4			L_FAL			L_TAM			L_FCC			L_FM1			L_FM2			L_FM5			R_TH1			R_TH2			R_TH3			R_TH4			R_FLE			R_FME			R_SK2			R_SK1			R_SK3			R_SK4			R_FAL			R_TAM			R_FCC			R_FM1			R_FM2			R_FM5			R_IPS			L_IPS			CV7			L_SIA			R_SIA			TV10			L_SAE			R_SAE			L_ARM			R_ARM			L_HLE			R_HLE			L_RSP			L_USP			R_RSP			R_USP		
		X1	Y1	Z1	X2	Y2	Z2	X3	Y3	Z3	X4	Y4	Z4	X5	Y5	Z5	X6	Y6	Z6	X7	Y7	Z7	X8	Y8	Z8	X9	Y9	Z9	X10	Y10	Z10	X11	Y11	Z11	X12	Y12	Z12	X13	Y13	Z13	X14	Y14	Z14	X15	Y15	Z15	X16	Y16	Z16	X17	Y17	Z17	X18	Y18	Z18	X19	Y19	Z19	X20	Y20	Z20	X21	Y21	Z21	X22	Y22	Z22	X23	Y23	Z23	X24	Y24	Z24	X25	Y25	Z25	X26	Y26	Z26	X27	Y27	Z27	X28	Y28	Z28	X29	Y29	Z29	X30	Y30	Z30	X31	Y31	Z31	X32	Y32	Z32	X33	Y33	Z33	X34	Y34	Z34	X35	Y35	Z35	X36	Y36	Z36	X37	Y37	Z37	X38	Y38	Z38	X39	Y39	Z39	X40	Y40	Z40	X41	Y41	Z41	X42	Y42	Z42	X43	Y43	Z43	X44	Y44	Z44	X45	Y45	Z45	X46	Y46	Z46	X47	Y47	Z47	X48	Y48	Z48	X49	Y49	Z49	X50	Y50	Z50

1310	8.904762	967.339125	993.049429	-664.434818	1024.489356	850.254755	-421.775755	1035.256324	1070.434725	-760.255461	1037.268088	1041.687392	-792.888991	1092.763342	1080.395919	-817.503757	1089.435852	1109.342149	-785.661952	1192.613126	1086.391575	-840.079759	1257.070658	1058.006960	-732.958567	1227.816125	1003.889024	-867.187103	1187.305267	1001.237735	-868.255356	1190.880864	927.107491	-878.448845	1236.004983	930.520598	-878.421051	1211.367172	694.595876	-848.631995	1250.674953	718.098273	-773.288149	1134.733475	706.224637	-786.330878	1324.928359	612.649451	-780.726122	1332.181651	607.902673	-826.073989	1267.901457	585.616322	-870.573184	978.405561	496.572104	-411.674742	1022.337340	490.103788	-419.219084	1007.874837	422.344463	-447.456711	967.622819	417.188279	-442.133905	945.711747	405.324878	-452.817362	989.467536	401.108112	-573.421654	963.822064	309.226461	-447.507147	918.155100	317.603639	-449.758866	954.682702	237.165933	-450.701966	908.603013	242.311867	-452.046989	917.486733	13.598700	-515.048092	949.187593	35.054272	-597.501594	850.652139	-23.858014	-578.942254	1060.797732	-15.652225	-566.146110	1059.493345	-1.350928	-512.681862	1021.518733	-18.608565	-468.142582	844.845971	894.914512	-476.058175	834.344772	932.866700	-561.023430	923.647597	1378.530145	-495.198613	906.211993	1227.723163	-610.624674	849.143995	1223.800387	-414.530046	854.545257	1143.346895	-469.760815	1048.714511	1355.902915	-609.155738	940.118294	1389.484631	-332.762880	1106.684616	1286.111135	-752.570162	868.828477	1344.769662	-186.520333	1210.315322	1220.796879	-849.052273	830.870884	1309.723159	-42.435961	1388.457498	1378.133065	-908.654682	1400.361766	1326.552027	-944.614813	985.159415	1375.535794	144.564042	929.234524	1418.246414	149.403018
1311	8.911565	967.330924	993.151148	-664.363611	1024.347717	850.257771	-421.733804	1035.289251	1070.591379	-760.103948	1037.322925	1041.860629	-792.753681	1092.826943	1080.582209	-817.324577	1089.529206	1109.490645	-785.449560	1192.680576	1086.597381	-839.862740	1257.123842	1058.191552	-732.741265	1227.702257	1004.182204	-867.026376	1187.386057	1001.465560	-868.084031	1190.973404	927.342012	-878.321394	1236.091801	930.783777	-878.296070	1211.483123	694.832561	-848.670443	1250.767590	718.267498	-773.299398	1134.826195	706.412760	-786.388363	1325.022070	612.809655	-780.806362	1332.284232	608.101583	-826.161796	1268.000400	585.864275	-870.702389	978.186110	496.625834	-411.574786	1022.147452	490.163910	-418.998434	1007.791623	422.388634	-447.225681	967.480511	417.208967	-442.113869	945.593803	405.377465	-452.770984	989.684394	401.099365	-573.263620	963.660538	309.262457	-447.420130	918.007618	317.680774	-449.750918	954.468959	237.206285	-450.572993	908.369611	242.391414	-451.980220	917.480117	13.544738	-514.989465	949.253166	35.142694	-597.357151	850.639827	-23.855436	-578.937261	1060.781748	-15.584387	-566.092681	1059.497186	-1.393222	-512.591411	1021.535784	-18.677423	-468.089956	844.743598	894.955937	-476.088918	834.280170	932.940139	-561.060444	923.648793	1378.555173	-495.056065	906.176894	1227.771973	-610.520751	849.117072	1223.825217	-414.411053	854.519695	1143.384706	-469.683427	1048.716441	1355.913190	-609.042858	940.153937	1389.472981	-332.618235	1106.696123	1286.065158	-752.449784	868.956113	1344.750288	-186.323313	1210.334322	1220.657910	-848.888299	831.092675	1309.707814	-42.212710	1388.390456	1378.156164	-908.317079	1400.419713	1326.611213	-944.232257	985.470793	1375.427885	144.756533	929.548105	1418.143215	149.627092
1312	8.918367	967.331080	993.253113	-664.294899	1024.206006	850.260518	-421.697513	1035.345149	1070.745014	-759.946332	1037.401546	1042.031016	-792.612459	1092.918422	1080.763951	-817.135271	1089.665124	1109.624751	-785.217900	1192.776784	1086.792139	-839.629474	1257.199674	1058.356973	-732.506119	1227.620189	1004.459893	-866.848752	1187.491478	1001.683475	-867.898940	1191.087648	927.568198	-878.184281	1236.199913	931.033790	-878.158405	1211.604223	695.056478	-848.706371	1250.863473	718.420144	-773.305969	1134.922765	706.587567	-786.445978	1325.119311	612.954195	-780.883947	1332.391017	608.286843	-826.246286	1268.105426	586.100438	-870.831198	977.982948	496.674754	-411.491063	1021.972570	490.220954	-418.803703	1007.715198	422.431369	-447.021134	967.353736	417.227041	-442.098857	945.485782	405.428322	-452.736004	989.889349	401.090033	-573.124342	963.514162	309.294019	-447.350790	917.873270	317.749515	-449.756399	954.276399	237.240863	-450.470619	908.162107	242.462660	-451.937836	917.478314	13.496779	-514.942466	949.322235	35.224503	-597.227447	850.630168	-23.852364	-578.934229	1060.766410	-15.525671	-566.041038	1059.501658	-1.426131	-512.510865	1021.551489	-18.736498	-468.044595	844.639305	894.997024	-476.129731	834.216963	933.013460	-561.105705	923.646063	1378.580951	-494.919873	906.143770	1227.819356	-610.423201	849.088724	1223.849355	-414.300723	854.494092	1143.421716	-469.614050	1048.720344	1355.923242	-608.931167	940.188229	1389.457668	-332.475873	1106.715123	1286.024659	-752.330394	869.077712	1344.721268	-186.130673	1210.361228	1220.527160	-848.724425	831.293784	1309.681726	-41.994733	1388.338204	1378.184399	-907.965514	1400.501032	1326.678594	-943.837995	985.788637	1375.283856	144.936895	929.868210	1418.010824	149.844740
1313	8.925170	967.340024	993.354773	-664.229054	1024.065827	850.262784	-421.667467	1035.423959	1070.894777	-759.784040	1037.503565	1042.197572	-792.466585	1093.037269	1080.940161	-816.937426	1089.845199	1109.742668	-784.967773	1192.901429	1086.974663	-839.381737	1257.297095	1058.502645	-732.254326	1227.579124	1004.717115	-866.654550	1187.621536	1001.889942	-867.701586	1191.223715	927.784478	-878.038586	1236.329409	931.268367	-878.008466	1211.730432	695.265517	-848.738435	1250.961911	718.555690	-773.306575	1135.022916	706.748001	-786.503144	1325.219468	613.082789	-780.954905	1332.502190	608.457368	-826.323363	1268.217515	586.322740	-870.955613	977.796076	496.718670	-411.424078	1021.812609	490.274605	-418.635942	1007.644488	422.472299	-446.843927	967.241471	417.242670	-442.089253	945.386705	405.477396	-452.712354	990.080125	401.080392	-573.004735	963.382090	309.321321	-447.298955	917.750978	317.809571	-449.775143	954.104428	237.269660	-450.394531	907.979764	242.525399	-451.919270	917.480910	13.454921	-514.906988	949.393708	35.298952	-597.112993	850.623145	-23.848844	-578.933076	1060.751989	-15.476083	-565.991833	1059.506562	-1.450372	-512.440355	1021.565781	-18.786149	-468.006297	844.534141	895.037224	-476.180650	834.155980	933.086187	-561.158403	923.638878	1378.607168	-494.790369	906.112730	1227.864892	-610.331936	849.059077	1223.872345	-414.199043	854.468585	1143.457311	-469.552530	1048.726254	1355.932576	-608.820654	940.220288	1389.438486	-332.335548	1106.741097	1285.988332	-752.212046	869.192372	1344.682097	-185.942644	1210.395522	1220.403318	-848.560498	831.471249	1309.644864	-41.782088	1388.300118	1378.216040	-907.601593	1400.604936	1326.751890	-943.433212	986.112335	1375.103799	145.103653	930.192889	1417.849893	150.054755
